<svg width="164" height="60" viewBox="0 0 164 60" fill="none" xmlns="http://www.w3.org/2000/svg">
<g clip-path="url(#clip0_7_1613)">
<circle cx="25" cy="30" r="25" fill="#FEC110"/>
<g clip-path="url(#clip1_7_1613)">
<path d="M-42.2952 28.9466V22.3406L-43.283 19.6858L-41.9247 20.0562L-40.6282 22.3405L-35.998 22.8344L-32.4787 22.3405C-32.4787 22.3405 -18.2167 15.4875 -3.95578 15.4875C3.51462 15.4875 7.58362 15.8948 11.3925 17.2287C13.3432 17.9141 15.2264 18.8339 17.4677 20.0687L17.4682 20.0743C19.3946 21.1364 21.5803 22.4329 24.2969 23.995L24.8893 24.3349C25.087 24.4521 25.291 24.5631 25.4943 24.6804C25.803 24.8593 34.3845 24.8038 40.8673 25.8534C47.3498 26.9029 51.486 29.4959 51.486 29.4959L52.3505 31.5951L53.153 32.3359L52.5358 38.3864L54.2025 40.4855H43.157V34.9354C43.157 30.4347 39.5083 26.7797 35.0013 26.7797C30.4945 26.7797 26.8458 30.4285 26.8458 34.9354V40.4855H-11.7359V34.9354C-11.7359 30.4347 -15.3847 26.7797 -19.8916 26.7797C-24.3922 26.7797 -28.0472 30.4285 -28.0472 34.9354V39.3374L-43.9697 36.7257V30.4283L-42.2952 28.9466ZM20.9074 36.9109C21.395 36.9109 21.8272 36.596 21.9881 36.1332L23.791 30.7308C23.902 30.391 23.723 30.0206 23.3775 29.9033C23.3096 29.8784 23.2416 29.8722 23.1736 29.8722L22.0992 29.8727L20.1235 36.9109L20.9074 36.9109ZM-2.96688 24.9954L18.5801 25.8597V23.452C18.5801 23.452 11.1715 18.0808 4.13275 18.0808H-4.20185L-2.96688 24.9954ZM-20.1305 24.625H-7.35008V18.0807C-12.4744 18.0807 -21.427 21.9702 -21.427 21.9702L-20.1305 24.625Z" fill="#2C2C2C"/>
<path d="M38.0099 34.941L38.6454 34.9534V34.9347C38.6454 34.4595 38.5526 33.99 38.3736 33.5453L37.1201 34.0642C37.2311 34.336 37.2929 34.6323 37.2929 34.9285V34.941L38.0099 34.941Z" fill="#2C2C2C"/>
<path d="M37.1141 35.811C36.9969 36.0891 36.8304 36.3417 36.6201 36.5518L37.5774 37.5147C37.9174 37.1749 38.1824 36.7738 38.3676 36.3355L37.1141 35.811Z" fill="#2C2C2C"/>
<path d="M36.6194 33.3228L37.5824 32.3655C37.2424 32.0257 36.8477 31.7544 36.4032 31.5692L35.8779 32.8226C36.1567 32.9404 36.4094 33.1132 36.6194 33.3228Z" fill="#2C2C2C"/>
<path d="M35.0029 37.2189V38.5772C35.4782 38.5772 35.9539 38.4843 36.3924 38.299L35.8734 37.0456C35.5959 37.1634 35.2992 37.2189 35.0029 37.2189Z" fill="#2C2C2C"/>
<path d="M33.4585 34.9352C33.4585 35.7876 34.1495 36.4787 35.002 36.4787C35.8545 36.4787 36.5455 35.7877 36.5455 34.9352C36.5455 34.0827 35.8545 33.3917 35.002 33.3917C34.1497 33.3917 33.4585 34.0827 33.4585 34.9352Z" fill="#2C2C2C"/>
<path d="M35.0026 32.6499H35.0089V31.2917H35.0026C34.5274 31.2917 34.0579 31.3846 33.6196 31.5636L34.1384 32.8233C34.4101 32.7054 34.7064 32.6499 35.0026 32.6499Z" fill="#2C2C2C"/>
<path d="M33.3846 36.5519L32.4219 37.5091C32.7616 37.849 33.1626 38.114 33.6011 38.2993L34.1199 37.0458C33.8481 36.9286 33.6011 36.762 33.3846 36.5519Z" fill="#2C2C2C"/>
<path d="M32.4349 32.3484C32.0952 32.682 31.8239 33.083 31.6387 33.5276L32.8922 34.0527C33.0094 33.7746 33.1759 33.5276 33.3922 33.3118L32.4349 32.3484Z" fill="#2C2C2C"/>
<path d="M32.7176 34.9221H31.3594V34.9346C31.3594 35.4098 31.4524 35.8856 31.6376 36.3296L32.8911 35.8108C32.7739 35.5327 32.7184 35.2365 32.7184 34.9402L32.7176 34.9221Z" fill="#2C2C2C"/>
<path d="M35.0027 27.5256C39.0962 27.5256 42.4115 30.8408 42.4115 34.9343C42.4115 39.0276 39.0962 42.343 35.0027 42.343C30.9092 42.343 27.5942 39.0278 27.5942 34.9343C27.5942 30.8409 30.9092 27.5256 35.0027 27.5256ZM35.0027 39.0089C37.2565 39.0089 39.0775 37.1874 39.0775 34.9341C39.0775 32.6804 37.256 30.8593 35.0027 30.8593C32.749 30.8593 30.928 32.6808 30.928 34.9341C30.928 37.1879 32.7495 39.0089 35.0027 39.0089Z" fill="#2C2C2C"/>
<path d="M38.0099 34.941L38.6454 34.9534V34.9347C38.6454 34.4595 38.5526 33.99 38.3736 33.5453L37.1201 34.0642C37.2311 34.336 37.2929 34.6323 37.2929 34.9285V34.941L38.0099 34.941Z" fill="#2C2C2C"/>
<path d="M37.1141 35.811C36.9969 36.0891 36.8304 36.3417 36.6201 36.5518L37.5774 37.5147C37.9174 37.1749 38.1824 36.7738 38.3676 36.3355L37.1141 35.811Z" fill="#2C2C2C"/>
<path d="M36.6194 33.3228L37.5824 32.3655C37.2424 32.0257 36.8477 31.7544 36.4032 31.5692L35.8779 32.8226C36.1567 32.9404 36.4094 33.1132 36.6194 33.3228Z" fill="#2C2C2C"/>
<path d="M35.0029 37.2189V38.5772C35.4782 38.5772 35.9539 38.4843 36.3924 38.299L35.8734 37.0456C35.5959 37.1634 35.2992 37.2189 35.0029 37.2189Z" fill="#2C2C2C"/>
<path d="M33.4585 34.9352C33.4585 35.7876 34.1495 36.4787 35.002 36.4787C35.8545 36.4787 36.5455 35.7877 36.5455 34.9352C36.5455 34.0827 35.8545 33.3917 35.002 33.3917C34.1497 33.3917 33.4585 34.0827 33.4585 34.9352Z" fill="#2C2C2C"/>
<path d="M35.0026 32.6499H35.0089V31.2917H35.0026C34.5274 31.2917 34.0579 31.3846 33.6196 31.5636L34.1384 32.8233C34.4101 32.7054 34.7064 32.6499 35.0026 32.6499Z" fill="#2C2C2C"/>
<path d="M33.3846 36.5519L32.4219 37.5091C32.7616 37.849 33.1626 38.114 33.6011 38.2993L34.1199 37.0458C33.8481 36.9286 33.6011 36.762 33.3846 36.5519Z" fill="#2C2C2C"/>
<path d="M32.8975 34.0521C33.0148 33.774 33.1813 33.5271 33.3975 33.3113L32.4403 32.3484C32.1005 32.682 31.8293 33.083 31.644 33.5276L32.8975 34.0521Z" fill="#2C2C2C"/>
<path d="M31.3604 34.9221V34.9346C31.3604 35.4098 31.4531 35.8856 31.6384 36.3296L32.8918 35.8108C32.7746 35.5327 32.7191 35.2365 32.7191 34.9402V34.9278H31.3604V34.9221Z" fill="#2C2C2C"/>
<path d="M33.4585 34.9352C33.4585 35.7876 34.1495 36.4787 35.002 36.4787C35.8545 36.4787 36.5455 35.7877 36.5455 34.9352C36.5455 34.0827 35.8545 33.3917 35.002 33.3917C34.1497 33.3917 33.4585 34.0827 33.4585 34.9352Z" fill="#2C2C2C"/>
<path d="M35.0029 37.2189C35.2991 37.2189 35.5954 37.1634 35.8734 37.0462L36.3924 38.2996C35.9539 38.4786 35.4786 38.5777 35.0029 38.5777V37.2189ZM33.3854 36.5523C33.5954 36.7624 33.8486 36.9352 34.1261 37.0462L33.6074 38.2996C33.1689 38.1144 32.7679 37.8488 32.4281 37.5095L33.3854 36.5523ZM37.1146 35.8114L38.3681 36.3365C38.1829 36.7749 37.9171 37.1759 37.5779 37.5157L36.6206 36.5528C36.8309 36.3427 36.9974 36.0895 37.1146 35.8114ZM32.7186 34.9352C32.7186 35.2376 32.7741 35.5339 32.8914 35.8057L31.6381 36.3246C31.4529 35.8799 31.3599 35.4109 31.3599 34.9295V34.917L32.7186 34.9165V34.9352ZM38.3744 33.552C38.5534 33.9904 38.6461 34.4656 38.6461 34.9414V34.9601L38.0101 34.9476L37.2874 34.9471V34.9346C37.2874 34.6384 37.2319 34.3478 37.1146 34.0703L38.3744 33.552ZM32.4349 32.3478L33.3921 33.3107C33.1759 33.5209 33.0094 33.774 32.8921 34.0516L31.6386 33.5265C31.8294 33.0887 32.0951 32.6877 32.4349 32.3478ZM36.4049 31.5764C36.8434 31.7616 37.2444 32.0335 37.5841 32.3728L36.6214 33.33C36.4111 33.1199 36.1579 32.9471 35.8804 32.8299L36.4049 31.5764ZM35.0031 31.2921H35.0094V32.6503H35.0031C34.7069 32.6503 34.4106 32.7058 34.1386 32.8231L33.6199 31.5634C34.0584 31.3849 34.5279 31.2921 35.0031 31.2921Z" fill="#2C2C2C"/>
</g>
</g>
<path d="M54 36.5824L57.2675 20.2022H61.076L64.3227 36.5824H61.1385L60.5349 32.9828H57.871L57.2258 36.5824H54ZM58.1832 30.9403H60.2019L59.1822 24.3276L58.1832 30.9403Z" fill="#2C2C2C"/>
<path d="M66.031 36.5824V20.2022H70.2975C71.0328 20.2022 71.7127 20.2629 72.337 20.3842C72.9614 20.5056 73.5094 20.7213 73.9812 21.0313C74.4668 21.3414 74.8345 21.7728 75.0842 22.3256C75.3478 22.8648 75.4796 23.5726 75.4796 24.4489C75.4796 25.1095 75.3825 25.6758 75.1883 26.1476C74.994 26.606 74.7165 26.97 74.3558 27.2396C73.9951 27.5093 73.5511 27.6913 73.0238 27.7856C73.6759 27.88 74.224 28.0957 74.668 28.4328C75.112 28.7698 75.445 29.2147 75.6669 29.7674C75.8889 30.3202 75.9999 30.9875 75.9999 31.7695C75.9999 32.5918 75.8889 33.3064 75.6669 33.913C75.4588 34.5197 75.1466 35.0185 74.7304 35.4095C74.3142 35.8005 73.8008 36.0971 73.1903 36.2993C72.5799 36.488 71.8722 36.5824 71.0675 36.5824H66.031ZM69.465 34.2366H70.4224C71.2826 34.2366 71.8722 34.0276 72.1914 33.6097C72.5244 33.1918 72.6908 32.5649 72.6908 31.729C72.6908 31.0819 72.6145 30.5696 72.4619 30.1921C72.3093 29.8011 72.0596 29.518 71.7127 29.3428C71.3797 29.154 70.9288 29.0597 70.3599 29.0597H69.465V34.2366ZM69.465 26.815H70.3183C70.9149 26.815 71.3658 26.7341 71.6711 26.5723C71.9763 26.397 72.1844 26.1409 72.2954 25.8038C72.4203 25.4533 72.4827 25.0286 72.4827 24.5298C72.4827 24.031 72.3925 23.6333 72.2122 23.3367C72.0457 23.0266 71.7821 22.8042 71.4213 22.6694C71.0745 22.5345 70.6305 22.4671 70.0894 22.4671H69.465V26.815Z" fill="#2C2C2C"/>
<path d="M79.5633 36.5824V22.6896H76.9618V20.2022H85.5779V22.6896H83.0181V36.5824H79.5633Z" fill="#2C2C2C"/>
<path d="M91.8106 36.8049C90.5758 36.8049 89.5976 36.5891 88.8761 36.1577C88.1547 35.7263 87.6344 35.1129 87.3152 34.3175C87.01 33.5086 86.8574 32.5447 86.8574 31.4257V25.3185C86.8574 24.1995 87.01 23.2423 87.3152 22.4469C87.6344 21.6515 88.1547 21.0448 88.8761 20.6269C89.5976 20.209 90.5758 20 91.8106 20C93.0593 20 94.0444 20.2157 94.7659 20.6471C95.5013 21.065 96.0215 21.6717 96.3268 22.4671C96.6459 23.2491 96.8055 24.1995 96.8055 25.3185V31.4257C96.8055 32.5447 96.6459 33.5086 96.3268 34.3175C96.0215 35.1129 95.5013 35.7263 94.7659 36.1577C94.0444 36.5891 93.0593 36.8049 91.8106 36.8049ZM91.8106 34.3984C92.2546 34.3984 92.5807 34.304 92.7888 34.1153C92.9969 33.913 93.1356 33.6501 93.205 33.3266C93.2744 32.9895 93.3091 32.6323 93.3091 32.2548V24.5096C93.3091 24.1321 93.2744 23.7816 93.205 23.458C93.1356 23.1345 92.9969 22.8783 92.7888 22.6896C92.5807 22.4874 92.2546 22.3862 91.8106 22.3862C91.3944 22.3862 91.0822 22.4874 90.8741 22.6896C90.666 22.8783 90.5272 23.1345 90.4578 23.458C90.3885 23.7816 90.3538 24.1321 90.3538 24.5096V32.2548C90.3538 32.6323 90.3815 32.9895 90.437 33.3266C90.5064 33.6501 90.6452 33.913 90.8533 34.1153C91.0614 34.304 91.3805 34.3984 91.8106 34.3984Z" fill="#2C2C2C"/>
<path d="M108.859 40L108.443 36.5824H99.14V20.2022H102.574V34.3175H105.821V20.2022H109.255V34.3175H111.398V40H108.859Z" fill="#2C2C2C"/>
<path d="M113.081 36.5824V20.2022H120.428V22.5076H116.515V26.8554H119.533V29.181H116.515V34.3175H120.47V36.5824H113.081Z" fill="#2C2C2C"/>
<path d="M122.248 36.5824V20.2022H125.682V26.9363H128.659V20.2022H132.092V36.5824H128.659V29.3225H125.682V36.5824H122.248Z" fill="#2C2C2C"/>
<path d="M136.268 36.5824V22.6896H133.666V20.2022H142.282V22.6896H139.722V36.5824H136.268Z" fill="#2C2C2C"/>
<path d="M143.811 36.5824V20.2022H149.16C150.173 20.2022 150.998 20.391 151.637 20.7685C152.275 21.1325 152.747 21.665 153.052 22.366C153.371 23.0671 153.53 23.9164 153.53 24.9141C153.53 26.087 153.322 27.0037 152.906 27.6643C152.504 28.3249 151.949 28.7968 151.241 29.0799C150.534 29.3495 149.722 29.4843 148.806 29.4843H147.245V36.5824H143.811ZM147.245 27.1385H148.452C148.952 27.1385 149.333 27.0644 149.597 26.9161C149.875 26.7543 150.062 26.5049 150.159 26.1678C150.256 25.8308 150.305 25.3994 150.305 24.8736C150.305 24.3748 150.263 23.9569 150.18 23.6198C150.11 23.2828 149.944 23.0199 149.68 22.8311C149.417 22.6424 149 22.548 148.432 22.548H147.245V27.1385Z" fill="#2C2C2C"/>
<path d="M155.003 36.5824V33.6097H158V36.5824H155.003Z" fill="#2C2C2C"/>
<defs>
<clipPath id="clip0_7_1613">
<rect y="5" width="50" height="50" rx="25" fill="white"/>
</clipPath>
<clipPath id="clip1_7_1613">
<rect width="50" height="27.25" fill="white" transform="translate(0 15.25)"/>
</clipPath>
</defs>
</svg>
